HIERARCHY
ROOT Hips
{
	OFFSET -0.066283 88.859909 3.106752
	CHANNELS 6 Xposition Yposition Zposition Zrotation Yrotation Xrotation 
	JOINT Spine
	{
		OFFSET -0.000000 8.814246 -2.080107
		CHANNELS 3 Zrotation Yrotation Xrotation
		JOINT Spine1
		{
			OFFSET -0.000000 8.844141 0.000000
			CHANNELS 3 Zrotation Yrotation Xrotation
			JOINT Spine2
			{
				OFFSET 0.000000 11.682268 0.000000
				CHANNELS 3 Zrotation Yrotation Xrotation
				JOINT Spine3
				{
					OFFSET -0.000000 11.746700 0.000000
					CHANNELS 3 Zrotation Yrotation Xrotation
					JOINT Neck
					{
						OFFSET -0.000000 17.658264 0.000000
						CHANNELS 3 Zrotation Yrotation Xrotation
						JOINT Neck1
						{
							OFFSET 0.000000 5.101515 -0.000000
							CHANNELS 3 Zrotation Yrotation Xrotation
							JOINT Head
							{
								OFFSET -0.000000 5.101515 -0.000000
								CHANNELS 3 Zrotation Yrotation Xrotation
								JOINT HeadEnd
								{
									OFFSET 0.000000 11.655085 -0.000000
									CHANNELS 3 Zrotation Yrotation Xrotation
									End Site
									{
										OFFSET 0.000000 0.000000 0.000000
									}
								}
							}
						}
					}
					JOINT RightShoulder
					{
						OFFSET -2.625389 11.175210 -0.000000
						CHANNELS 3 Zrotation Yrotation Xrotation
						JOINT RightArm
						{
							OFFSET 0.000000 10.434715 -0.000000
							CHANNELS 3 Zrotation Yrotation Xrotation
							JOINT RightForeArm
							{
								OFFSET -0.000000 29.628420 0.000000
								CHANNELS 3 Zrotation Yrotation Xrotation
								JOINT RightHand
								{
									OFFSET -0.000000 22.857611 0.000000
									CHANNELS 3 Zrotation Yrotation Xrotation
									JOINT RightHandThumb1
									{
										OFFSET -2.867323 3.959563 2.944291
										CHANNELS 3 Zrotation Yrotation Xrotation
										JOINT RightHandThumb2
										{
											OFFSET -0.000000 3.350399 0.000000
											CHANNELS 3 Zrotation Yrotation Xrotation
											JOINT RightHandThumb3
											{
												OFFSET -0.000000 3.756509 -0.000000
												CHANNELS 3 Zrotation Yrotation Xrotation
												JOINT RightHandThumb4
												{
													OFFSET -0.000000 3.147345 0.000000
													CHANNELS 3 Zrotation Yrotation Xrotation
													End Site
													{
														OFFSET 0.000000 0.000000 0.000000
													}
												}
											}
										}
									}
									JOINT RightHandIndex1
									{
										OFFSET -0.086752 10.030893 2.345280
										CHANNELS 3 Zrotation Yrotation Xrotation
										JOINT RightHandIndex2
										{
											OFFSET 0.000000 4.061090 -0.000000
											CHANNELS 3 Zrotation Yrotation Xrotation
											JOINT RightHandIndex3
											{
												OFFSET 0.000000 3.248873 -0.000000
												CHANNELS 3 Zrotation Yrotation Xrotation
												JOINT RightHandIndex4
												{
													OFFSET 0.000000 2.639709 0.000000
													CHANNELS 3 Zrotation Yrotation Xrotation
													End Site
													{
														OFFSET 0.000000 0.000000 0.000000
													}
												}
											}
										}
									}
									JOINT RightHandMiddle1
									{
										OFFSET 0.104102 9.502952 0.006768
										CHANNELS 3 Zrotation Yrotation Xrotation
										JOINT RightHandMiddle2
										{
											OFFSET 0.000000 4.568727 0.000000
											CHANNELS 3 Zrotation Yrotation Xrotation
											JOINT RightHandMiddle3
											{
												OFFSET 0.000000 3.654981 -0.000000
												CHANNELS 3 Zrotation Yrotation Xrotation
												JOINT RightHandMiddle4
												{
													OFFSET -0.000000 2.741236 0.000000
													CHANNELS 3 Zrotation Yrotation Xrotation
													End Site
													{
														OFFSET 0.000000 0.000000 0.000000
													}
												}
											}
										}
									}
									JOINT RightHandRing1
									{
										OFFSET 0.086752 8.921708 -2.267442
										CHANNELS 3 Zrotation Yrotation Xrotation
										JOINT RightHandRing2
										{
											OFFSET 0.000000 4.061090 -0.000000
											CHANNELS 3 Zrotation Yrotation Xrotation
											JOINT RightHandRing3
											{
												OFFSET -0.000000 3.654981 0.000000
												CHANNELS 3 Zrotation Yrotation Xrotation
												JOINT RightHandRing4
												{
													OFFSET -0.000000 2.741236 0.000000
													CHANNELS 3 Zrotation Yrotation Xrotation
													End Site
													{
														OFFSET 0.000000 0.000000 0.000000
													}
												}
											}
										}
									}
									JOINT RightHandPinky1
									{
										OFFSET -0.173504 7.976997 -4.467199
										CHANNELS 3 Zrotation Yrotation Xrotation
										JOINT RightHandPinky2
										{
											OFFSET -0.000000 3.350399 0.000000
											CHANNELS 3 Zrotation Yrotation Xrotation
											JOINT RightHandPinky3
											{
												OFFSET 0.000000 2.842763 0.000000
												CHANNELS 3 Zrotation Yrotation Xrotation
												JOINT RightHandPinky4
												{
													OFFSET 0.000000 2.639709 0.000000
													CHANNELS 3 Zrotation Yrotation Xrotation
													End Site
													{
														OFFSET 0.000000 0.000000 0.000000
													}
												}
											}
										}
									}
									JOINT RightForeArmEnd
									{
										OFFSET 0.000000 0.000000 0.000000
										CHANNELS 3 Zrotation Yrotation Xrotation
										End Site
										{
											OFFSET 0.000000 0.000000 0.000000
										}
									}
								}
								JOINT RightArmEnd
								{
									OFFSET 0.000000 0.000000 0.000000
									CHANNELS 3 Zrotation Yrotation Xrotation
									End Site
									{
										OFFSET 0.000000 0.000000 0.000000
									}
								}
							}
						}
					}
					JOINT LeftShoulder
					{
						OFFSET 2.625389 11.175210 0.000000
						CHANNELS 3 Zrotation Yrotation Xrotation
						JOINT LeftArm
						{
							OFFSET -0.000000 10.813635 -0.000000
							CHANNELS 3 Zrotation Yrotation Xrotation
							JOINT LeftForeArm
							{
								OFFSET -0.000000 28.724781 -0.000000
								CHANNELS 3 Zrotation Yrotation Xrotation
								JOINT LeftHand
								{
									OFFSET 0.644384 25.716167 -0.328871
									CHANNELS 3 Zrotation Yrotation Xrotation
									JOINT LeftHandThumb1
									{
										OFFSET 2.867323 3.959563 2.944291
										CHANNELS 3 Zrotation Yrotation Xrotation
										JOINT LeftHandThumb2
										{
											OFFSET 0.000000 3.350399 0.000000
											CHANNELS 3 Zrotation Yrotation Xrotation
											JOINT LeftHandThumb3
											{
												OFFSET -0.000000 3.756509 -0.000000
												CHANNELS 3 Zrotation Yrotation Xrotation
												JOINT LeftHandThumb4
												{
													OFFSET 0.000000 3.100000 0.000000
													CHANNELS 3 Zrotation Yrotation Xrotation
													End Site
													{
														OFFSET 0.000000 0.000000 0.000000
													}
												}
											}
										}
									}
									JOINT LeftHandIndex1
									{
										OFFSET 0.086752 10.030893 2.345280
										CHANNELS 3 Zrotation Yrotation Xrotation
										JOINT LeftHandIndex2
										{
											OFFSET 0.000000 4.061090 0.000000
											CHANNELS 3 Zrotation Yrotation Xrotation
											JOINT LeftHandIndex3
											{
												OFFSET -0.000000 3.248873 -0.000000
												CHANNELS 3 Zrotation Yrotation Xrotation
												JOINT LeftHandIndex4
												{
													OFFSET 0.000000 2.639709 0.000000
													CHANNELS 3 Zrotation Yrotation Xrotation
													End Site
													{
														OFFSET 0.000000 0.000000 0.000000
													}
												}
											}
										}
									}
									JOINT LeftHandMiddle1
									{
										OFFSET -0.104102 9.502952 0.006768
										CHANNELS 3 Zrotation Yrotation Xrotation
										JOINT LeftHandMiddle2
										{
											OFFSET -0.000000 4.568727 -0.000000
											CHANNELS 3 Zrotation Yrotation Xrotation
											JOINT LeftHandMiddle3
											{
												OFFSET -0.000000 3.654981 -0.000000
												CHANNELS 3 Zrotation Yrotation Xrotation
												JOINT LeftHandMiddle4
												{
													OFFSET 0.000000 2.741236 0.000000
													CHANNELS 3 Zrotation Yrotation Xrotation
													End Site
													{
														OFFSET 0.000000 0.000000 0.000000
													}
												}
											}
										}
									}
									JOINT LeftHandRing1
									{
										OFFSET -0.086752 8.921708 -2.267442
										CHANNELS 3 Zrotation Yrotation Xrotation
										JOINT LeftHandRing2
										{
											OFFSET 0.000000 4.061090 0.000000
											CHANNELS 3 Zrotation Yrotation Xrotation
											JOINT LeftHandRing3
											{
												OFFSET 0.000000 3.654981 -0.000000
												CHANNELS 3 Zrotation Yrotation Xrotation
												JOINT LeftHandRing4
												{
													OFFSET -0.000000 2.741236 -0.000000
													CHANNELS 3 Zrotation Yrotation Xrotation
													End Site
													{
														OFFSET 0.000000 0.000000 0.000000
													}
												}
											}
										}
									}
									JOINT LeftHandPinky1
									{
										OFFSET 0.173504 7.976997 -4.467199
										CHANNELS 3 Zrotation Yrotation Xrotation
										JOINT LeftHandPinky2
										{
											OFFSET -0.000000 3.350399 -0.000000
											CHANNELS 3 Zrotation Yrotation Xrotation
											JOINT LeftHandPinky3
											{
												OFFSET 0.000000 2.842763 -0.000000
												CHANNELS 3 Zrotation Yrotation Xrotation
												JOINT LeftHandPinky4
												{
													OFFSET -0.000000 2.639709 -0.000000
													CHANNELS 3 Zrotation Yrotation Xrotation
													End Site
													{
														OFFSET 0.000000 0.000000 0.000000
													}
												}
											}
										}
									}
									JOINT LeftForeArmEnd
									{
										OFFSET 0.000000 0.000000 0.000000
										CHANNELS 3 Zrotation Yrotation Xrotation
										End Site
										{
											OFFSET 0.000000 0.000000 0.000000
										}
									}
								}
								JOINT LeftArmEnd
								{
									OFFSET 0.000000 0.000000 0.000000
									CHANNELS 3 Zrotation Yrotation Xrotation
									End Site
									{
										OFFSET 0.000000 0.000000 0.000000
									}
								}
							}
						}
					}
				}
			}
		}
	}
	JOINT RightUpLeg
	{
		OFFSET -11.289943 -0.000000 0.000000
		CHANNELS 3 Zrotation Yrotation Xrotation
		JOINT RightLeg
		{
			OFFSET 0.000000 -38.200325 -0.000000
			CHANNELS 3 Zrotation Yrotation Xrotation
			JOINT RightFoot
			{
				OFFSET -0.000000 -39.900856 0.000000
				CHANNELS 3 Zrotation Yrotation Xrotation
				JOINT RightToeBase
				{
					OFFSET 0.000000 0.000000 15.261641
					CHANNELS 3 Zrotation Yrotation Xrotation
					JOINT RightToeBaseEnd
					{
						OFFSET 0.000000 0.000000 7.370709
						CHANNELS 3 Zrotation Yrotation Xrotation
						End Site
						{
							OFFSET 0.000000 0.000000 0.000000
						}
					}
				}
				JOINT RightLegEnd
				{
					OFFSET 0.000000 0.000000 0.000000
					CHANNELS 3 Zrotation Yrotation Xrotation
					End Site
					{
						OFFSET 0.000000 0.000000 0.000000
					}
				}
			}
			JOINT RightUpLegEnd
			{
				OFFSET 0.000000 0.000000 0.000000
				CHANNELS 3 Zrotation Yrotation Xrotation
				End Site
				{
					OFFSET 0.000000 0.000000 0.000000
				}
			}
		}
	}
	JOINT LeftUpLeg
	{
		OFFSET 11.315661 0.000000 0.000000
		CHANNELS 3 Zrotation Yrotation Xrotation
		JOINT LeftLeg
		{
			OFFSET 0.000000 -38.200325 -0.000000
			CHANNELS 3 Zrotation Yrotation Xrotation
			JOINT LeftFoot
			{
				OFFSET 0.000000 -39.900856 -0.000000
				CHANNELS 3 Zrotation Yrotation Xrotation
				JOINT LeftToeBase
				{
					OFFSET 0.000000 -0.000000 15.261641
					CHANNELS 3 Zrotation Yrotation Xrotation
					JOINT LeftToeBaseEnd
					{
						OFFSET -0.000000 0.000000 7.539996
						CHANNELS 3 Zrotation Yrotation Xrotation
						End Site
						{
							OFFSET 0.000000 0.000000 0.000000
						}
					}
				}
				JOINT LeftLegEnd
				{
					OFFSET 0.000000 0.000000 0.000000
					CHANNELS 3 Zrotation Yrotation Xrotation
					End Site
					{
						OFFSET 0.000000 0.000000 0.000000
					}
				}
			}
			JOINT LeftUpLegEnd
			{
				OFFSET 0.000000 0.000000 0.000000
				CHANNELS 3 Zrotation Yrotation Xrotation
				End Site
				{
					OFFSET 0.000000 0.000000 0.000000
				}
			}
		}
	}
}
MOTION
Frames: 4
Frame Time: 0.016667
-0.423372 88.589890 2.907658 -0.035835 -0.345075 -10.752638 -1.360496 -0.080390 7.439833 0.833490 -0.378238 1.301317 -0.276667 0.077938 6.875705 1.162882 -0.323066 3.657789 -2.172890 0.394083 3.909443 0.036397 0.131952 -3.435148 -0.187728 0.540631 -19.033283 0.000000 0.000000 0.000000 90.765907 0.014546 5.906550 70.007782 -12.104518 1.176984 -0.264811 12.181837 48.902321 -0.282381 18.649553 -7.980627 7.136961 -1.427033 41.507404 -0.000009 0.000028 -17.373838 -0.000002 0.000048 -12.193417 0.000019 -0.000002 -0.000016 -4.678319 17.297529 -2.360182 1.815935 -1.038947 -1.259843 1.704812 -0.020255 -1.206432 -0.000013 0.000026 -0.000027 -2.798636 7.158299 -5.163388 1.954792 -1.034501 -0.520917 1.977291 -0.010419 -0.445948 0.000008 0.000033 0.000011 3.228449 -9.286305 -9.091942 3.255497 2.055845 0.809336 3.270872 0.002500 0.630530 -0.000025 -0.000454 0.000005 10.730935 -26.322685 -14.412919 4.494054 4.056946 2.779380 4.212662 -0.018512 2.361716 0.000153 0.000000 0.000002 0.000000 0.000000 0.000000 0.000000 0.000000 0.000000 -90.928238 0.142156 10.583101 -67.700798 33.592731 -1.968606 -1.328364 -14.456823 40.593822 -0.826236 -8.693112 -14.318715 -9.067216 1.617533 40.670353 0.000017 0.000020 -21.964043 0.000052 -0.000027 -15.334979 -0.000089 0.000006 0.000346 -7.456110 17.768898 -5.862134 -5.597872 -0.944320 1.726998 -5.610561 0.061608 1.608014 -0.000010 -0.000263 0.000005 -5.806190 7.273479 -7.566816 -5.221702 -1.009000 0.637650 -4.992542 0.017535 0.562492 0.000314 -0.000025 -0.000116 -4.107598 -9.200928 -8.428482 -5.103593 2.034726 -0.952979 -4.925502 -0.020711 -0.724999 0.000172 0.000013 0.000002 -0.155087 -26.173023 -12.112339 -4.323887 3.974279 -2.586613 -4.391470 -0.086221 -2.272362 -0.000643 0.000007 -0.000049 0.000000 0.000000 0.000000 0.000000 0.000000 0.000000 1.700859 5.850655 10.089387 -0.073290 -0.368771 10.123553 -5.161250 2.874639 16.161797 -0.336591 0.431486 -20.702181 0.000000 0.000000 0.000000 0.000000 0.000000 0.000000 0.000000 0.000000 0.000000 1.829427 10.699757 14.785076 0.054487 0.631460 5.517109 1.032529 8.502729 17.396652 0.754173 -0.775011 -19.069279 0.000000 0.000000 0.000000 0.000000 0.000000 0.000000 0.000000 0.000000 0.000000 
-0.418233 88.587044 2.905037 -0.047964 -0.391248 -10.764252 -1.365122 -0.084153 7.436945 0.805380 -0.378545 1.283099 -0.242739 0.041623 6.893607 1.171231 -0.331974 3.641809 -2.103293 0.371393 3.841663 0.053562 0.159491 -3.460975 -0.184219 0.539894 -18.991060 0.000000 0.000000 0.000000 90.746201 0.015262 5.907497 69.998779 -12.017922 1.210512 -0.279218 12.251280 49.475731 -0.193956 18.847185 -7.846915 7.194448 -1.435986 41.477814 -0.000009 0.000028 -17.526604 -0.000002 0.000048 -12.300275 0.000020 -0.000002 -0.000016 -4.326786 17.294735 -2.519482 1.904691 -1.037351 -1.272342 1.791864 -0.018316 -1.216794 -0.000012 0.000026 -0.000027 -2.444881 7.156222 -5.281955 2.047662 -1.033898 -0.526105 2.069290 -0.009704 -0.449952 0.000008 0.000033 0.000011 3.608243 -9.279945 -9.181305 3.358212 2.054446 0.817982 3.372099 0.001199 0.637121 -0.000025 -0.000460 0.000004 11.114149 -26.297037 -14.461761 4.597632 4.050792 2.807945 4.316370 -0.023860 2.384797 0.000145 0.000000 0.000002 0.000000 0.000000 0.000000 0.000000 0.000000 0.000000 -90.941299 0.145284 10.589772 -67.769478 33.744263 -2.018684 -1.332918 -14.445376 40.560261 -0.894730 -8.824306 -14.312940 -9.149752 1.628488 40.630810 0.000017 0.000020 -22.170218 0.000053 -0.000026 -15.475660 -0.000042 0.000006 0.000359 -7.938705 17.755537 -6.003980 -5.791735 -0.941371 1.747698 -5.805001 0.064269 1.625930 -0.000010 -0.000264 0.000005 -6.221832 7.270077 -7.663568 -5.406000 -1.007998 0.645220 -5.179569 0.018518 0.568797 0.000300 -0.000024 -0.000119 -4.457749 -9.198098 -8.476000 -5.270807 2.033240 -0.962941 -5.095129 -0.021917 -0.732616 0.000180 0.000013 0.000001 -0.480657 -26.167330 -12.092844 -4.455176 3.970188 -2.615636 -4.528753 -0.089676 -2.296054 -0.000647 0.000007 -0.000049 0.000000 0.000000 0.000000 0.000000 0.000000 0.000000 1.710668 5.889302 10.092493 -0.073904 -0.368452 10.152317 -5.153193 2.927776 16.145905 -0.337128 0.435678 -20.688503 0.000000 0.000000 0.000000 0.000000 0.000000 0.000000 0.000000 0.000000 0.000000 1.830159 10.712920 14.815134 0.053592 0.627689 5.507009 1.031770 8.499947 17.381598 0.754505 -0.772585 -19.056707 0.000000 0.000000 0.000000 0.000000 0.000000 0.000000 0.000000 0.000000 0.000000 
-0.413344 88.584106 2.902819 -0.061586 -0.434822 -10.775143 -1.367752 -0.087886 7.434382 0.777559 -0.378477 1.265056 -0.208623 0.005921 6.908240 1.179633 -0.340526 3.627446 -2.038641 0.350064 3.777820 0.070006 0.185825 -3.484744 -0.181284 0.538599 -18.950653 0.000000 0.000000 0.000000 90.725739 0.014979 5.906276 69.988777 -11.938825 1.242570 -0.293824 12.317288 50.045261 -0.098797 19.062723 -7.710470 7.253229 -1.444788 41.447872 -0.000009 0.000028 -17.682957 -0.000002 0.000048 -12.409636 0.000020 -0.000002 -0.000016 -3.969800 17.293343 -2.676014 2.005305 -1.035420 -1.286115 1.890538 -0.016068 -1.228350 -0.000012 0.000026 -0.000027 -2.088679 7.154749 -5.398032 2.151468 -1.033161 -0.531810 2.172305 -0.008877 -0.454386 0.000008 0.000033 0.000011 3.987475 -9.274373 -9.270658 3.470417 2.052838 0.827284 3.482771 -0.000261 0.644238 -0.000025 -0.000463 0.000004 11.493891 -26.273188 -14.511778 4.708551 4.044026 2.838077 4.427544 -0.029742 2.409323 0.000138 0.000000 0.000002 0.000000 0.000000 0.000000 0.000000 0.000000 0.000000 -90.952927 0.148817 10.593949 -67.845078 33.883301 -2.076758 -1.337451 -14.434824 40.530540 -0.954745 -8.980115 -14.304762 -9.232551 1.639362 40.591152 0.000016 0.000020 -22.377131 0.000054 -0.000025 -15.616751 0.000004 0.000006 0.000377 -8.419021 17.741247 -6.143144 -5.987336 -0.938230 1.768989 -6.001240 0.067097 1.644385 -0.000010 -0.000264 0.000005 -6.635415 7.266418 -7.758416 -5.592053 -1.006897 0.653048 -5.368332 0.019559 0.575292 0.000283 -0.000024 -0.000121 -4.805899 -9.195215 -8.524144 -5.439946 2.031591 -0.973323 -5.266593 -0.023212 -0.740515 0.000183 0.000013 0.000001 -0.803312 -26.161577 -12.076938 -4.588383 3.965704 -2.645954 -4.667982 -0.093420 -2.320779 -0.000649 0.000006 -0.000050 0.000000 0.000000 0.000000 0.000000 0.000000 0.000000 1.723660 5.928225 10.098438 -0.074446 -0.367970 10.179399 -5.145314 2.979246 16.128958 -0.337290 0.439798 -20.674520 0.000000 0.000000 0.000000 0.000000 0.000000 0.000000 0.000000 0.000000 0.000000 1.832420 10.726682 14.846603 0.052788 0.624267 5.495972 1.029861 8.497967 17.365477 0.755106 -0.770182 -19.043488 0.000000 0.000000 0.000000 0.000000 0.000000 0.000000 0.000000 0.000000 0.000000 
-0.408730 88.581123 2.900767 -0.076579 -0.475346 -10.785088 -1.368460 -0.091491 7.432108 0.749975 -0.377942 1.247215 -0.174484 -0.029194 6.919466 1.187917 -0.348682 3.614766 -1.978500 0.329521 3.717947 0.085592 0.210407 -3.506295 -0.178810 0.536748 -18.911659 0.000000 0.000000 0.000000 90.704041 0.013989 5.902986 69.979271 -11.867533 1.270977 -0.308513 12.378914 50.611092 -0.001303 19.291204 -7.572258 7.311986 -1.453305 41.418171 -0.000009 0.000028 -17.839571 -0.000001 0.000048 -12.519208 0.000020 -0.000002 -0.000016 -3.614920 17.293192 -2.826928 2.113539 -1.033232 -1.300745 1.996696 -0.013592 -1.240728 -0.000012 0.000027 -0.000027 -1.737023 7.153814 -5.509398 2.262113 -1.032320 -0.537873 2.282207 -0.007961 -0.459121 0.000008 0.000034 0.000011 4.359544 -9.269576 -9.357992 3.588213 2.051083 0.837026 3.598992 -0.001835 0.651715 -0.000025 -0.000464 0.000004 11.864121 -26.251438 -14.561505 4.823515 4.036850 2.869196 4.542882 -0.035998 2.434831 0.000131 0.000000 0.000001 0.000000 0.000000 0.000000 0.000000 0.000000 0.000000 -90.962532 0.152526 10.596045 -67.926544 34.009556 -2.142270 -1.341801 -14.425374 40.506435 -1.004098 -9.156670 -14.294308 -9.314952 1.650086 40.551682 0.000016 0.000021 -22.583235 0.000055 -0.000025 -15.757180 0.000048 0.000006 0.000398 -8.893028 17.726261 -6.278306 -6.183053 -0.934956 1.790611 -6.197657 0.070039 1.663160 -0.000010 -0.000265 0.000005 -7.043715 7.262555 -7.850205 -5.778249 -1.005721 0.661039 -5.557236 0.020641 0.581901 0.000263 -0.000023 -0.000123 -5.149796 -9.192321 -8.571690 -5.609618 2.029815 -0.984006 -5.438498 -0.024576 -0.748611 0.000183 0.000013 0.000001 -1.121377 -26.155897 -12.063562 -4.722544 3.960920 -2.677229 -4.808106 -0.097388 -2.346259 -0.000650 0.000006 -0.000050 0.000000 0.000000 0.000000 0.000000 0.000000 0.000000 1.739738 5.966921 10.106603 -0.074926 -0.367400 10.204675 -5.137655 3.028409 16.111174 -0.337113 0.443876 -20.660334 0.000000 0.000000 0.000000 0.000000 0.000000 0.000000 0.000000 0.000000 0.000000 1.836155 10.740686 14.878779 0.052074 0.621190 5.484146 1.026981 8.496508 17.348761 0.755951 -0.767828 -19.029821 0.000000 0.000000 0.000000 0.000000 0.000000 0.000000 0.000000 0.000000 0.000000 
